# xmcd
#
# Track frame offsets: 
#        182
#        13685
#        32517
#        42832
#        51957
#        65247
#        78307
#        93642
#        106572
#        119945
#        134867
#        146260
#
# Disc length: 2149 seconds
#
# Revision: 11
# Processed by: cddbd v1.5.2PL0 Copyright (c) Steve Scherf et al.
# Submitted via: ExactAudioCopyFreeDBPlugin 1.0
#
DISCID=ab08630c
DTITLE=Fleetwood Mac - Peter Green´s Fleetwood Mac - Original Album Cl
DTITLE=assics -
DYEAR=1968
DGENRE=Blues
TTITLE0=My Heart Beat Like A Hammer
TTITLE1=Merry Go Round
TTITLE2=Long Grey Mare
TTITLE3=Hellhound On My Trail
TTITLE4=Shake Your Moneymaker
TTITLE5=Looking For Somebody
TTITLE6=No Place To Go
TTITLE7=My Baby's Good To Me
TTITLE8=I Loved Another Woman
TTITLE9=Cold Black Night
TTITLE10=The World Keep On Turning
TTITLE11=Got To Move
EXTD=Peter Green, Jeremy Spencer, John McVie, Mick Fleetwood, Bob Brun
EXTD=ning YEAR: 1968
EXTT0=
EXTT1=
EXTT2=
EXTT3=
EXTT4=
EXTT5=
EXTT6=
EXTT7=
EXTT8=
EXTT9=
EXTT10=
EXTT11=
PLAYORDER=
